<svg width="160" height="160" viewBox="0 0 160 160" fill="none" xmlns="http://www.w3.org/2000/svg">
<path fill-rule="evenodd" clip-rule="evenodd" d="M80 160C124.183 160 160 124.183 160 80C160 35.8172 124.183 0 80 0C35.8172 0 0 35.8172 0 80C0 124.183 35.8172 160 80 160ZM79.999 21.9835C83.1101 21.9835 86.1641 22.2283 89.1426 22.6999L89.1419 116.58C105.543 112.494 117.696 97.6662 117.696 80C117.696 68.793 112.805 58.7283 105.042 51.8234V27.6518C124.546 36.9994 138.016 56.9268 138.016 80C138.016 112.042 112.041 138.017 79.999 138.017C47.9573 138.017 21.9824 112.042 21.9824 80C21.9824 47.9584 47.9573 21.9835 79.999 21.9835ZM71.998 43.1543C55.022 46.8232 42.3024 61.9262 42.3024 80C42.3024 98.0738 55.022 113.177 71.998 116.846V43.1543Z" fill="white"/>
</svg>
