<?xml version="1.0" encoding="UTF-8" standalone="no"?>
<svg
  xmlns="http://www.w3.org/2000/svg"
  version="1.1"
  x="0px"
  y="0px"
  viewBox="0 0 46 46">
  <style
    type="text/css">
    .brand{fill:#0d65f2;}
    .white{fill:#FFFFFF;}
  </style>
  <circle
    cx="23"
    cy="23"
    r="23"
    class="brand"/>
  <path
    d="M 25.628498,6.526193 C 24.77218,6.3906368 23.894155,6.320228 22.999713,6.320228 c -9.211989,0 -16.6797729,7.467784 -16.6797729,16.679743 0,9.212104 7.4677839,16.67963 16.6797729,16.67963 9.212075,0 16.679888,-7.467526 16.679888,-16.67963 0,-6.633545 -3.872626,-12.362673 -9.480025,-15.0501067 v 6.9493637 c 2.231862,1.98513 3.638024,4.87876 3.638024,8.100743 0,5.079033 -3.493987,9.342054 -8.209304,10.51678 z M 12.16194,22.999971 c 0,-5.196217 3.656885,-9.53833 8.537485,-10.593138 V 33.593225 C 15.818825,32.538388 12.16194,28.196218 12.16194,22.999971 Z"
    class="white"/>
</svg>
